# xmcd
#
# Track frame offsets:
#	150
#	21024
#	39636
#	52472
#	71042
#	86129
#	103807
#	119141
#	133164
#	147094
#	159879
#	175191
#	190828
#	206418
#	221389
#	235255
#	249639
#	262097
#	275597
#	288786
#
# Disc length: 4054 seconds
#
# Revision: 1
# Processed by: cddbd v1.5.2PL0 Copyright (c) Steve Scherf et al.
# Submitted via: audiograbber 1.83.01
#
DISCID=3a0fd414
DTITLE=Various Artist - 80's Bilehitit
DYEAR=2011
DGENRE=Pop
TTITLE0=Meiju Suvas - Pure Mua
TTITLE1=Eini - Yes Sir, Alkaa Polttaa
TTITLE2=Kake Randelin - Avaa Hakas
TTITLE3=Kikka - Mä Haluun Viihdyttää
TTITLE4=Leena Nilsson - Anna Kulta Anna
TTITLE5=Meiju Suvas - Se Rakkautta Merkitsee
TTITLE6=Eini - Vielä Jossain Kohdin
TTITLE7=Kake Randelin - Kielletyt Tunteet
TTITLE8=Kristiina Vuorela - Rantareggae
TTITLE9=Meiju Suvas - Muukalainen
TTITLE10=Eini - Xanadu
TTITLE11=Kake Randelin - Kirje Kotiin
TTITLE12=Leena Nilsson - Soita Mulle
TTITLE13=Kikka - Huone 105
TTITLE14=Meiju Suvas - Moliendo Cafe
TTITLE15=Eini - Vie Vie Vie
TTITLE16=Kake Randelin - Tarja Sinä Rakas
TTITLE17=Koivistolaiset - Mamma Maria
TTITLE18=Leena - Johnny Blue
TTITLE19=Juhamatti - Pieni Ja Lämpöinen
EXTD=TR.
EXTT0=
EXTT1=
EXTT2=
EXTT3=
EXTT4=
EXTT5=
EXTT6=
EXTT7=
EXTT8=
EXTT9=
EXTT10=
EXTT11=
EXTT12=
EXTT13=
EXTT14=
EXTT15=
EXTT16=
EXTT17=
EXTT18=
EXTT19=
PLAYORDER=
